{"title":"Phata Poster Nikhla Hero 2013 Hindi Movies HDSCamRip XViD New So","uid":8944682,"size":740139540,"categoryP":"video","categoryS":"movies","magnet":"?xt=urn:btih:78eab984831dc208609089c0c28ccfeaf267e4cd&amp;dn=Phata+Poster+Nikhla+Hero+2013+Hindi+Movies+HDSCamRip+XViD+New+So&amp;tr=udp%3A%2F%2Ftracker.openbittorrent.com%3A80&amp;tr=udp%3A%2F%2Fopen.demonii.com%3A1337&amp;tr=udp%3A%2F%2Ftracker.coppersurfer.tk%3A6969&amp;tr=udp%3A%2F%2Fexodus.desync.com%3A6969","seeders":1,"leechers":2,"uploader":"basicssom","files":2,"time":1379746018,"description":" &lt;a href=&quot;http://s5.postimg.org/hgeuxszk7/logo.png&quot; rel=&quot;nofollow&quot; target=&quot;_NEW&quot;&gt;http://s5.postimg.org/hgeuxszk7/logo.png&lt;/a&gt;\n\nPhata Poster Nikhla Hero 2013 Hindi Movies HDSCamRip XViD New Source +Sample ~ â˜»rDXâ˜»\n\nPlease check SCREEN SHOTS first :\n &lt;a href=&quot;\nhttp://myimghosting.serveftp.com/13/PhataPosterNikhlaHero.html&quot; rel=&quot;nofollow&quot; target=&quot;_NEW&quot;&gt;\nhttp://myimghosting.serveftp.com/13/PhataPosterNikhlaHero.html&lt;/a&gt;\n &lt;a href=&quot;\nhttp://myimghost.cwahi.net/PhataPosterNikhlaHero.html&quot; rel=&quot;nofollow&quot; target=&quot;_NEW&quot;&gt;\nhttp://myimghost.cwahi.net/PhataPosterNikhlaHero.html&lt;/a&gt;\n\nAll rDX torrents are Seeding From the 1Gbps Seedbox 24X7\n &lt;a href=&quot;\nhttp://s5.postimg.org/8tn8udptz/389144_phata_poster_nikla_hero_poster.jpg&quot; rel=&quot;nofollow&quot; target=&quot;_NEW&quot;&gt;\nhttp://s5.postimg.org/8tn8udptz/389144_phata_poster_nikla_hero_poster.jpg&lt;/a&gt;\n &lt;a href=&quot;\nhttp://s5.postimg.org/ceo6aq0p3/phata_poster_nikla_hero_0a.jpg&quot; rel=&quot;nofollow&quot; target=&quot;_NEW&quot;&gt;\nhttp://s5.postimg.org/ceo6aq0p3/phata_poster_nikla_hero_0a.jpg&lt;/a&gt;\n &lt;a href=&quot;\nhttp://s5.postimg.org/4912fg64n/Phata_Poster_Nikla_Hero.jpg&quot; rel=&quot;nofollow&quot; target=&quot;_NEW&quot;&gt;\nhttp://s5.postimg.org/4912fg64n/Phata_Poster_Nikla_Hero.jpg&lt;/a&gt;\n\nFormat                                   : AVI\nFormat/Info                              : Audio Video Interleave\nFile size                                : 689 MiB\nDuration                                 : 2h 17mn\nOverall bit rate                         : 702 Kbps\nWriting library                          : MPlayer\n\nVideo\nID                                       : 0\nFormat                                   : MPEG-4 Visual\nFormat profile                           : Advanced Simple@L5\nFormat settings, BVOP                    : 2\nFormat settings, QPel                    : No\nFormat settings, GMC                     : No warppoints\nFormat settings, Matrix                  : Default (H.263)\nCodec ID                                 : XVID\nCodec ID/Hint                            : XviD\nDuration                                 : 2h 17mn\nBit rate                                 : 569 Kbps\nWidth                                    : 640 pixels\nHeight                                   : 272 pixels\nDisplay aspect ratio                     : 2.35:1\nFrame rate                               : 25.000 fps\nColor space                              : YUV\nChroma subsampling                       : 4:2:0\nBit depth                                : 8 bits\nScan type                                : Progressive\nCompression mode                         : Lossy\nBits/(Pixel*Frame)                       : 0.131\nStream size                              : 558 MiB (81%)\nWriting library                          : XviD 1.2.1 (UTC 2008-12-04)\n\nAudio\nID                                       : 1\nFormat                                   : MPEG Audio\nFormat version                           : Version 1\nFormat profile                           : Layer 3\nMode                                     : Joint stereo\nMode extension                           : MS Stereo\nCodec ID                                 : 55\nCodec ID/Hint                            : MP3\nDuration                                 : 2h 17mn\nBit rate mode                            : Constant\nBit rate                                 : 128 Kbps\nChannel(s)                               : 2 channels\nSampling rate                            : 48.0 KHz\nCompression mode                         : Lossy\nStream size                              : 126 MiB (18%)\nAlignment                                : Split accross interleaves\nInterleave, duration                     : 500 ms (12.50 video frames)\nInterleave, preload duration             : 500 ms","torrent":{"xt":"urn:btih:78eab984831dc208609089c0c28ccfeaf267e4cd","amp;dn":"Phata+Poster+Nikhla+Hero+2013+Hindi+Movies+HDSCamRip+XViD+New+So","amp;tr":["udp%3A%2F%2Ftracker.openbittorrent.com%3A80","udp%3A%2F%2Fopen.demonii.com%3A1337","udp%3A%2F%2Ftracker.coppersurfer.tk%3A6969","udp%3A%2F%2Fexodus.desync.com%3A6969"],"infoHash":"78eab984831dc208609089c0c28ccfeaf267e4cd","infoHashBuffer":{"type":"Buffer","data":[120,234,185,132,131,29,194,8,96,144,137,192,194,140,207,234,242,103,228,205]},"announce":[],"urlList":[]}}